name rise35.5848peak51.9257fall54.8793.mot
datacolumns 19
datarows 35
range 23.87323700000000 23.92990000000000
endheader
time	ground_force1_vx	ground_force1_vy	ground_force1_vz	ground_force1_px	ground_force1_py	ground_force1_pz	ground_force2_vx	ground_force2_vy	ground_force2_vz	ground_force2_px	ground_force2_py	ground_force2_pz	ground_torque1_x	ground_torque1_y	ground_torque1_z	ground_torque2_x	ground_torque2_y	ground_torque2_z	
23.87323700000000	-45.83596700000000	807.28259600000001	60.82567800000000	0.10235600000000	0.00000000000000	0.11855400000000	-7.41120400000000	52.36696900000000	7.98832400000000	0.31505800000000	0.00000000000000	-0.08414000000000	0.00000000000000	23.07985000000000	0.00000000000000	0.00000000000000	4.13112600000000	0.00000000000000	
23.87490600000000	-46.43948300000000	804.42718700000000	60.48927800000000	0.10143600000000	0.00000000000000	0.11843400000000	-7.84756900000000	58.88978500000000	8.63934800000000	0.32069300000000	0.00000000000000	-0.08452500000000	0.00000000000000	23.01235400000000	0.00000000000000	0.00000000000000	4.55198800000000	0.00000000000000	
23.87657300000000	-47.04597600000000	801.45650400000000	60.12312900000000	0.10053900000000	0.00000000000000	0.11830800000000	-8.15380300000000	65.28431399999999	9.19125700000000	0.32593900000000	0.00000000000000	-0.08487700000000	0.00000000000000	22.94372700000000	0.00000000000000	0.00000000000000	4.93302000000000	0.00000000000000	
23.87823700000000	-47.65542500000000	798.37112600000000	59.72736400000000	0.09966700000000	0.00000000000000	0.11817500000000	-8.32551500000000	71.50820800000000	9.63850700000000	0.33083700000000	0.00000000000000	-0.08520000000000	0.00000000000000	22.87409900000000	0.00000000000000	0.00000000000000	5.26940600000000	0.00000000000000	
23.87990000000000	-48.26780000000000	795.17158800000004	59.30218100000000	0.09881900000000	0.00000000000000	0.11803600000000	-8.36412100000000	77.54344000000000	9.98088900000000	0.33542300000000	0.00000000000000	-0.08549900000000	0.00000000000000	22.80359600000000	0.00000000000000	0.00000000000000	5.55909400000000	0.00000000000000	
23.88157100000000	-48.88306000000000	791.85837600000002	58.84784200000000	0.09799500000000	0.00000000000000	0.11789000000000	-8.27592400000000	83.39392800000000	10.22275900000000	0.33972400000000	0.00000000000000	-0.08577800000000	0.00000000000000	22.73233700000000	0.00000000000000	0.00000000000000	5.80251500000000	0.00000000000000	
23.88323300000000	-49.50115100000000	788.43191999999999	58.36467200000000	0.09719600000000	0.00000000000000	0.11773700000000	-8.07095300000000	89.08176500000000	10.37201300000000	0.34376700000000	0.00000000000000	-0.08604100000000	0.00000000000000	22.66043100000000	0.00000000000000	0.00000000000000	6.00215000000000	0.00000000000000	
23.88490700000000	-50.12200400000000	784.89258900000004	57.85306200000000	0.09642200000000	0.00000000000000	0.11757800000000	-7.76169200000000	94.64261999999999	10.43896000000000	0.34757100000000	0.00000000000000	-0.08628900000000	0.00000000000000	22.58798100000000	0.00000000000000	0.00000000000000	6.16198200000000	0.00000000000000	
23.88656900000000	-50.74552700000000	781.24068699999998	57.31345900000000	0.09567300000000	0.00000000000000	0.11741200000000	-7.36184300000000	100.12081300000000	10.43518200000000	0.35115300000000	0.00000000000000	-0.08652600000000	0.00000000000000	22.51507900000000	0.00000000000000	0.00000000000000	6.28693600000000	0.00000000000000	
23.88823500000000	-51.37161100000000	777.47645000000000	56.74637500000000	0.09494800000000	0.00000000000000	0.11724000000000	-6.88519500000000	105.56454700000000	10.37249200000000	0.35453000000000	0.00000000000000	-0.08675300000000	0.00000000000000	22.44180600000000	0.00000000000000	0.00000000000000	6.38231800000000	0.00000000000000	
23.88991900000000	-52.00011700000000	773.60004100000003	56.15237700000000	0.09424700000000	0.00000000000000	0.11706100000000	-6.34468700000000	111.02162600000000	10.26205100000000	0.35771500000000	0.00000000000000	-0.08697100000000	0.00000000000000	22.36823500000000	0.00000000000000	0.00000000000000	6.45333300000000	0.00000000000000	
23.89158500000000	-52.63088000000000	769.61154699999997	55.53208900000000	0.09357000000000	0.00000000000000	0.11687600000000	-5.75169400000000	116.53593700000000	10.11368200000000	0.36071900000000	0.00000000000000	-0.08718300000000	0.00000000000000	22.29442600000000	0.00000000000000	0.00000000000000	6.50468300000000	0.00000000000000	
23.89324000000000	-53.26370200000000	765.51098300000001	54.88619100000000	0.09291600000000	0.00000000000000	0.11668400000000	-5.11556500000000	122.14480700000000	9.93540700000000	0.36355200000000	0.00000000000000	-0.08738900000000	0.00000000000000	22.22042700000000	0.00000000000000	0.00000000000000	6.54027600000000	0.00000000000000	
23.89490800000000	-53.89834900000000	761.29828399999997	54.21541200000000	0.09228500000000	0.00000000000000	0.11648600000000	-4.44338600000000	127.87730900000000	9.73319800000000	0.36622300000000	0.00000000000000	-0.08759000000000	0.00000000000000	22.14627300000000	0.00000000000000	0.00000000000000	6.56304900000000	0.00000000000000	
23.89657500000000	-54.53454600000000	756.97331199999996	53.52053300000000	0.09167500000000	0.00000000000000	0.11628200000000	-3.73997000000000	133.75345300000001	9.51092800000000	0.36874100000000	0.00000000000000	-0.08778700000000	0.00000000000000	22.07198900000000	0.00000000000000	0.00000000000000	6.57489400000000	0.00000000000000	
23.89823600000000	-55.17197900000000	752.53584999999998	52.80238200000000	0.09108700000000	0.00000000000000	0.11607300000000	-3.00800300000000	139.78417899999999	9.27048300000000	0.37111200000000	0.00000000000000	-0.08798200000000	0.00000000000000	21.99758400000000	0.00000000000000	0.00000000000000	6.57668300000000	0.00000000000000	
23.89990100000000	-55.81028400000000	747.98560899999995	52.06183100000000	0.09051800000000	0.00000000000000	0.11585700000000	-2.24834300000000	145.97199499999999	9.01200200000000	0.37334200000000	0.00000000000000	-0.08817400000000	0.00000000000000	21.92305500000000	0.00000000000000	0.00000000000000	6.56836300000000	0.00000000000000	
23.90157200000000	-56.44905100000000	743.32222999999999	51.29979600000000	0.08996900000000	0.00000000000000	0.11563600000000	-1.46038400000000	152.31210500000000	8.73420700000000	0.37543700000000	0.00000000000000	-0.08836300000000	0.00000000000000	21.84838700000000	0.00000000000000	0.00000000000000	6.54911000000000	0.00000000000000	
23.90323500000000	-57.08781400000000	738.54528400000004	50.51723000000000	0.08943700000000	0.00000000000000	0.11540900000000	-0.64247600000000	158.79383500000000	8.43477000000000	0.37740300000000	0.00000000000000	-0.08855200000000	0.00000000000000	21.77354800000000	0.00000000000000	0.00000000000000	6.51751200000000	0.00000000000000	
23.90490300000000	-57.72605400000000	733.65427899999997	49.71512300000000	0.08892300000000	0.00000000000000	0.11517700000000	0.20765900000000	165.40221900000000	8.11070200000000	0.37924300000000	0.00000000000000	-0.08873900000000	0.00000000000000	21.69849600000000	0.00000000000000	0.00000000000000	6.47177200000000	0.00000000000000	
23.90657200000000	-58.36319100000000	728.64866300000006	48.89450000000000	0.08842300000000	0.00000000000000	0.11494000000000	1.09253400000000	172.11957799999999	7.75870800000000	0.38096200000000	0.00000000000000	-0.08892600000000	0.00000000000000	21.62317400000000	0.00000000000000	0.00000000000000	6.40990000000000	0.00000000000000	
23.90823400000000	-58.99858600000000	723.52783299999999	48.05641400000000	0.08793800000000	0.00000000000000	0.11469900000000	2.01456400000000	178.92698899999999	7.37551000000000	0.38256500000000	0.00000000000000	-0.08911200000000	0.00000000000000	21.54751100000000	0.00000000000000	0.00000000000000	6.32988800000000	0.00000000000000	
23.90990600000000	-59.63153600000000	718.29113600000005	47.20194700000000	0.08746600000000	0.00000000000000	0.11445300000000	2.97579000000000	185.80555600000000	6.95810600000000	0.38405300000000	0.00000000000000	-0.08929800000000	0.00000000000000	21.47142200000000	0.00000000000000	0.00000000000000	6.22986400000000	0.00000000000000	
23.91156700000000	-60.26127100000000	712.93788300000006	46.33220500000000	0.08700500000000	0.00000000000000	0.11420200000000	3.97768800000000	192.73742600000000	6.50396900000000	0.38543200000000	0.00000000000000	-0.08948400000000	0.00000000000000	21.39481200000000	0.00000000000000	0.00000000000000	6.10820100000000	0.00000000000000	
23.91323500000000	-60.88695800000000	707.46735200000001	45.44831400000000	0.08655300000000	0.00000000000000	0.11394700000000	5.02104400000000	199.70652699999999	6.01116800000000	0.38670300000000	0.00000000000000	-0.08967100000000	0.00000000000000	21.31757000000000	0.00000000000000	0.00000000000000	5.96359900000000	0.00000000000000	
23.91490500000000	-61.50769400000000	701.87880099999995	44.55142000000000	0.08610900000000	0.00000000000000	0.11368900000000	6.10590600000000	206.69903199999999	5.47843800000000	0.38786900000000	0.00000000000000	-0.08985700000000	0.00000000000000	21.23957400000000	0.00000000000000	0.00000000000000	5.79513100000000	0.00000000000000	
23.91656900000000	-62.12250500000000	696.17147899999998	43.64268000000000	0.08567200000000	0.00000000000000	0.11342700000000	7.23158900000000	213.70357000000001	4.90518400000000	0.38893400000000	0.00000000000000	-0.09004400000000	0.00000000000000	21.16069000000000	0.00000000000000	0.00000000000000	5.60225100000000	0.00000000000000	
23.91823400000000	-62.73035200000000	690.34463400000004	42.72326600000000	0.08524000000000	0.00000000000000	0.11316200000000	8.39673100000000	220.71121199999999	4.29144700000000	0.38989900000000	0.00000000000000	-0.09023000000000	0.00000000000000	21.08077100000000	0.00000000000000	0.00000000000000	5.38478400000000	0.00000000000000	
23.91990100000000	-63.33012500000000	684.39753099999996	41.79435500000000	0.08481000000000	0.00000000000000	0.11289300000000	9.59938700000000	227.71529400000000	3.63782800000000	0.39076600000000	0.00000000000000	-0.09041800000000	0.00000000000000	20.99965900000000	0.00000000000000	0.00000000000000	5.14289300000000	0.00000000000000	
23.92157000000000	-63.92064500000000	678.32946200000004	40.85713100000000	0.08438200000000	0.00000000000000	0.11262200000000	10.83713800000000	234.71110999999999	2.94540200000000	0.39153900000000	0.00000000000000	-0.09060600000000	0.00000000000000	20.91718700000000	0.00000000000000	0.00000000000000	4.87702600000000	0.00000000000000	
23.92323700000000	-64.50066800000000	672.13976100000002	39.91277900000000	0.08395300000000	0.00000000000000	0.11234900000000	12.10721400000000	241.69553500000001	2.21561000000000	0.39221900000000	0.00000000000000	-0.09079400000000	0.00000000000000	20.83317400000000	0.00000000000000	0.00000000000000	4.58786700000000	0.00000000000000	
23.92490700000000	-65.06888100000000	665.82782199999997	38.96248100000000	0.08352200000000	0.00000000000000	0.11207300000000	13.40661200000000	248.66661900000000	1.45015500000000	0.39280900000000	0.00000000000000	-0.09098200000000	0.00000000000000	20.74743200000000	0.00000000000000	0.00000000000000	4.27627700000000	0.00000000000000	
23.92656800000000	-65.62390900000000	659.39311199999997	38.00741600000000	0.08308700000000	0.00000000000000	0.11179600000000	14.73220800000000	255.62318999999999	0.65090900000000	0.39330900000000	0.00000000000000	-0.09117100000000	0.00000000000000	20.65976300000000	0.00000000000000	0.00000000000000	3.94324000000000	0.00000000000000	
23.92823700000000	-66.16431300000001	652.83518900000001	37.04875400000000	0.08264600000000	0.00000000000000	0.11151700000000	16.08085100000000	262.56449099999998	-0.18017800000000	0.39372300000000	0.00000000000000	-0.09135900000000	0.00000000000000	20.56995800000000	0.00000000000000	0.00000000000000	3.58981500000000	0.00000000000000	
23.92990000000000	-66.68859800000000	646.15371900000002	36.08765700000000	0.08219600000000	0.00000000000000	0.11123600000000	17.44944200000000	269.48988300000002	-1.04113800000000	0.39405100000000	0.00000000000000	-0.09154800000000	0.00000000000000	20.47780200000000	0.00000000000000	0.00000000000000	3.21709800000000	0.00000000000000	
